<svg width="43" height="43" viewBox="0 0 43 43" fill="none" xmlns="http://www.w3.org/2000/svg">
<path d="M14.3332 28.6666V19.7083M21.4999 28.6666V14.3333M28.6666 28.6666V25.0833M32.2499 7.1666H10.7499C9.79954 7.1666 8.8881 7.54412 8.2161 8.21613C7.54409 8.88813 7.16656 9.79957 7.16656 10.7499V32.2499C7.16656 33.2003 7.54409 34.1117 8.2161 34.7837C8.8881 35.4557 9.79954 35.8333 10.7499 35.8333H32.2499C33.2003 35.8333 34.1117 35.4557 34.7837 34.7837C35.4557 34.1117 35.8332 33.2003 35.8332 32.2499V10.7499C35.8332 9.79957 35.4557 8.88813 34.7837 8.21613C34.1117 7.54412 33.2003 7.1666 32.2499 7.1666Z" stroke="#69C920" stroke-width="2" stroke-linecap="round" stroke-linejoin="round"/>
</svg>